<mxfile host="app.diagrams.net" agent="Mozilla/5.0 (Windows NT 10.0; Win64; x64) AppleWebKit/537.36 (KHTML, like Gecko) Chrome/135.0.0.0 Safari/537.36" version="28.0.6">
  <diagram name="Sayfa -1" id="sPjQZg2fllXRhhnPilrW">
    <mxGraphModel dx="3143" dy="1247" grid="1" gridSize="10" guides="1" tooltips="1" connect="1" arrows="1" fold="1" page="1" pageScale="1" pageWidth="827" pageHeight="1169" math="0" shadow="0">
      <root>
        <mxCell id="0" />
        <mxCell id="1" parent="0" />
        <mxCell id="V_IxgnTOPH774RCMa7yx-125" value="" style="rounded=0;whiteSpace=wrap;html=1;" vertex="1" parent="1">
          <mxGeometry x="-280" y="10" width="1680" height="820" as="geometry" />
        </mxCell>
        <mxCell id="V_IxgnTOPH774RCMa7yx-2" value="JWT Authentication Mechanism" style="text;html=1;align=center;verticalAlign=middle;whiteSpace=wrap;rounded=0;fontSize=32;fontStyle=1" vertex="1" parent="1">
          <mxGeometry x="-130" y="40" width="900" height="30" as="geometry" />
        </mxCell>
        <mxCell id="V_IxgnTOPH774RCMa7yx-3" value="JwtAuthenticationFilter" style="text;html=1;align=center;verticalAlign=middle;whiteSpace=wrap;rounded=0;fontStyle=1;fontSize=16;" vertex="1" parent="1">
          <mxGeometry x="70" y="120" width="200" height="30" as="geometry" />
        </mxCell>
        <mxCell id="V_IxgnTOPH774RCMa7yx-4" value="" style="endArrow=none;dashed=1;html=1;rounded=0;" edge="1" parent="1">
          <mxGeometry width="50" height="50" relative="1" as="geometry">
            <mxPoint x="170" y="540" as="sourcePoint" />
            <mxPoint x="170" y="150" as="targetPoint" />
            <Array as="points" />
          </mxGeometry>
        </mxCell>
        <mxCell id="V_IxgnTOPH774RCMa7yx-8" value="AuthServiceImpl" style="text;html=1;align=center;verticalAlign=middle;whiteSpace=wrap;rounded=0;fontStyle=1;fontSize=16;" vertex="1" parent="1">
          <mxGeometry x="660" y="120" width="120" height="30" as="geometry" />
        </mxCell>
        <mxCell id="V_IxgnTOPH774RCMa7yx-9" value="" style="endArrow=none;dashed=1;html=1;rounded=0;entryX=0.5;entryY=1;entryDx=0;entryDy=0;" edge="1" parent="1" target="V_IxgnTOPH774RCMa7yx-8">
          <mxGeometry width="50" height="50" relative="1" as="geometry">
            <mxPoint x="720" y="620" as="sourcePoint" />
            <mxPoint x="1020" y="260" as="targetPoint" />
            <Array as="points">
              <mxPoint x="720" y="790" />
              <mxPoint x="720" y="620" />
            </Array>
          </mxGeometry>
        </mxCell>
        <mxCell id="V_IxgnTOPH774RCMa7yx-12" value="" style="endArrow=open;html=1;rounded=0;edgeStyle=orthogonalEdgeStyle;endFill=0;strokeWidth=1;endSize=12;entryX=0;entryY=0;entryDx=0;entryDy=0;" edge="1" parent="1" source="V_IxgnTOPH774RCMa7yx-60" target="V_IxgnTOPH774RCMa7yx-68">
          <mxGeometry width="50" height="50" relative="1" as="geometry">
            <mxPoint x="180" y="310" as="sourcePoint" />
            <mxPoint x="510" y="310" as="targetPoint" />
            <Array as="points">
              <mxPoint x="530" y="290" />
              <mxPoint x="530" y="290" />
            </Array>
          </mxGeometry>
        </mxCell>
        <mxCell id="V_IxgnTOPH774RCMa7yx-13" value="JWT_LIBRARIES" style="text;html=1;align=center;verticalAlign=middle;whiteSpace=wrap;rounded=0;fontStyle=1;fontSize=16;" vertex="1" parent="1">
          <mxGeometry x="1190" y="120" width="120" height="30" as="geometry" />
        </mxCell>
        <mxCell id="V_IxgnTOPH774RCMa7yx-14" value="" style="endArrow=none;dashed=1;html=1;rounded=0;entryX=0.5;entryY=1;entryDx=0;entryDy=0;" edge="1" parent="1" source="V_IxgnTOPH774RCMa7yx-80" target="V_IxgnTOPH774RCMa7yx-13">
          <mxGeometry width="50" height="50" relative="1" as="geometry">
            <mxPoint x="1250" y="630" as="sourcePoint" />
            <mxPoint x="1550" y="260" as="targetPoint" />
          </mxGeometry>
        </mxCell>
        <mxCell id="V_IxgnTOPH774RCMa7yx-20" value="RestAuthControllerImpl" style="text;html=1;align=center;verticalAlign=middle;whiteSpace=wrap;rounded=0;fontStyle=1;fontSize=16;" vertex="1" parent="1">
          <mxGeometry x="490" y="120" width="120" height="30" as="geometry" />
        </mxCell>
        <mxCell id="V_IxgnTOPH774RCMa7yx-22" value="" style="endArrow=none;dashed=1;html=1;rounded=0;" edge="1" parent="1">
          <mxGeometry width="50" height="50" relative="1" as="geometry">
            <mxPoint x="550" y="310" as="sourcePoint" />
            <mxPoint x="550" y="170" as="targetPoint" />
          </mxGeometry>
        </mxCell>
        <mxCell id="V_IxgnTOPH774RCMa7yx-40" value="Postman" style="text;html=1;align=center;verticalAlign=middle;whiteSpace=wrap;rounded=0;fontStyle=1;fontSize=16;" vertex="1" parent="1">
          <mxGeometry x="-275" y="120" width="120" height="30" as="geometry" />
        </mxCell>
        <mxCell id="V_IxgnTOPH774RCMa7yx-41" value="" style="endArrow=none;dashed=1;html=1;rounded=0;entryX=0.5;entryY=1;entryDx=0;entryDy=0;" edge="1" parent="1" source="V_IxgnTOPH774RCMa7yx-58" target="V_IxgnTOPH774RCMa7yx-40">
          <mxGeometry width="50" height="50" relative="1" as="geometry">
            <mxPoint x="-215" y="670" as="sourcePoint" />
            <mxPoint x="85" y="260" as="targetPoint" />
          </mxGeometry>
        </mxCell>
        <mxCell id="V_IxgnTOPH774RCMa7yx-48" value="" style="endArrow=open;html=1;rounded=0;edgeStyle=orthogonalEdgeStyle;endFill=0;strokeWidth=1;endSize=12;curved=1;entryX=0;entryY=0;entryDx=0;entryDy=0;" edge="1" parent="1" source="V_IxgnTOPH774RCMa7yx-43">
          <mxGeometry width="50" height="50" relative="1" as="geometry">
            <mxPoint x="-225" y="480" as="sourcePoint" />
            <mxPoint x="-230" y="490" as="targetPoint" />
            <Array as="points">
              <mxPoint x="-250" y="470" />
              <mxPoint x="-250" y="490" />
            </Array>
          </mxGeometry>
        </mxCell>
        <mxCell id="V_IxgnTOPH774RCMa7yx-50" value="" style="endArrow=open;html=1;rounded=0;edgeStyle=orthogonalEdgeStyle;endFill=0;strokeWidth=1;endSize=12;curved=1;exitX=0;exitY=1;exitDx=0;exitDy=0;" edge="1" parent="1" target="V_IxgnTOPH774RCMa7yx-43">
          <mxGeometry width="50" height="50" relative="1" as="geometry">
            <mxPoint x="-230" y="560" as="sourcePoint" />
            <mxPoint x="-255" y="580" as="targetPoint" />
            <Array as="points">
              <mxPoint x="-250" y="560" />
              <mxPoint x="-250" y="580" />
            </Array>
          </mxGeometry>
        </mxCell>
        <mxCell id="V_IxgnTOPH774RCMa7yx-52" style="edgeStyle=orthogonalEdgeStyle;rounded=0;orthogonalLoop=1;jettySize=auto;html=1;exitX=0.5;exitY=1;exitDx=0;exitDy=0;" edge="1" parent="1">
          <mxGeometry relative="1" as="geometry">
            <mxPoint x="-260" y="600" as="sourcePoint" />
            <mxPoint x="-260" y="600" as="targetPoint" />
          </mxGeometry>
        </mxCell>
        <mxCell id="V_IxgnTOPH774RCMa7yx-56" value="&lt;div style=&quot;&quot;&gt;&lt;span style=&quot;background-color: transparent; white-space-collapse: preserve;&quot;&gt;&lt;font style=&quot;color: rgb(0, 0, 0);&quot; face=&quot;Inter, system-ui, -apple-system, BlinkMacSystemFont, Segoe UI, Roboto, Oxygen, Ubuntu, Cantarell, Fira Sans, Droid Sans, Helvetica, Arial, sans-serif&quot;&gt;http://localhost:8080/authenticate&lt;/font&gt;&lt;/span&gt;&lt;/div&gt;&lt;div style=&quot;&quot;&gt;&lt;span style=&quot;background-color: transparent;&quot;&gt;&lt;font style=&quot;color: rgb(0, 0, 0);&quot; face=&quot;Inter, system-ui, -apple-system, BlinkMacSystemFont, Segoe UI, Roboto, Oxygen, Ubuntu, Cantarell, Fira Sans, Droid Sans, Helvetica, Arial, sans-serif&quot;&gt;&lt;span style=&quot;white-space-collapse: preserve;&quot;&gt;{&quot;username&quot; : &quot;AOA&quot;, &quot;password&quot; : &quot;0123&quot;}&lt;/span&gt;&lt;/font&gt;&lt;/span&gt;&lt;/div&gt;" style="text;html=1;align=center;verticalAlign=middle;whiteSpace=wrap;rounded=0;" vertex="1" parent="1">
          <mxGeometry x="-200" y="180" width="330" height="30" as="geometry" />
        </mxCell>
        <mxCell id="V_IxgnTOPH774RCMa7yx-57" value="" style="endArrow=open;html=1;rounded=0;edgeStyle=orthogonalEdgeStyle;endFill=0;strokeWidth=1;endSize=12;entryX=0;entryY=0;entryDx=0;entryDy=0;" edge="1" parent="1" source="V_IxgnTOPH774RCMa7yx-58" target="V_IxgnTOPH774RCMa7yx-60">
          <mxGeometry width="50" height="50" relative="1" as="geometry">
            <mxPoint x="-210" y="210" as="sourcePoint" />
            <mxPoint x="150" y="210" as="targetPoint" />
            <Array as="points">
              <mxPoint x="-210" y="210" />
              <mxPoint x="-210" y="210" />
            </Array>
          </mxGeometry>
        </mxCell>
        <mxCell id="V_IxgnTOPH774RCMa7yx-59" value="" style="endArrow=none;dashed=1;html=1;rounded=0;entryX=0.5;entryY=1;entryDx=0;entryDy=0;" edge="1" parent="1" source="V_IxgnTOPH774RCMa7yx-123" target="V_IxgnTOPH774RCMa7yx-58">
          <mxGeometry width="50" height="50" relative="1" as="geometry">
            <mxPoint x="-215" y="920.5714053199405" as="sourcePoint" />
            <mxPoint x="-215" y="150" as="targetPoint" />
          </mxGeometry>
        </mxCell>
        <mxCell id="V_IxgnTOPH774RCMa7yx-58" value="" style="rounded=0;whiteSpace=wrap;html=1;" vertex="1" parent="1">
          <mxGeometry x="-225" y="190" width="20" height="30" as="geometry" />
        </mxCell>
        <mxCell id="V_IxgnTOPH774RCMa7yx-60" value="" style="rounded=0;whiteSpace=wrap;html=1;" vertex="1" parent="1">
          <mxGeometry x="160" y="210" width="20" height="90" as="geometry" />
        </mxCell>
        <mxCell id="V_IxgnTOPH774RCMa7yx-64" value="doFilterInternal" style="text;html=1;align=center;verticalAlign=middle;whiteSpace=wrap;rounded=0;labelBackgroundColor=default;" vertex="1" parent="1">
          <mxGeometry x="115" y="170" width="110" height="30" as="geometry" />
        </mxCell>
        <mxCell id="V_IxgnTOPH774RCMa7yx-65" value="if(request.getHeader(&quot;Authorization&quot;) == null)&lt;div&gt;(if no token)&lt;/div&gt;" style="text;html=1;align=center;verticalAlign=middle;whiteSpace=wrap;rounded=0;" vertex="1" parent="1">
          <mxGeometry x="180" y="210" width="250" height="30" as="geometry" />
        </mxCell>
        <mxCell id="V_IxgnTOPH774RCMa7yx-67" value="filterChain.doFilter(request, response);" style="text;html=1;align=center;verticalAlign=middle;whiteSpace=wrap;rounded=0;" vertex="1" parent="1">
          <mxGeometry x="160" y="240" width="250" height="30" as="geometry" />
        </mxCell>
        <mxCell id="V_IxgnTOPH774RCMa7yx-70" value="authenticate" style="text;html=1;align=center;verticalAlign=middle;whiteSpace=wrap;rounded=0;labelBackgroundColor=default;" vertex="1" parent="1">
          <mxGeometry x="510" y="250" width="80" height="30" as="geometry" />
        </mxCell>
        <mxCell id="V_IxgnTOPH774RCMa7yx-71" value="" style="endArrow=none;dashed=1;html=1;rounded=0;" edge="1" parent="1" target="V_IxgnTOPH774RCMa7yx-68">
          <mxGeometry width="50" height="50" relative="1" as="geometry">
            <mxPoint x="550" y="790" as="sourcePoint" />
            <mxPoint x="550" y="150" as="targetPoint" />
          </mxGeometry>
        </mxCell>
        <mxCell id="V_IxgnTOPH774RCMa7yx-68" value="" style="rounded=0;whiteSpace=wrap;html=1;" vertex="1" parent="1">
          <mxGeometry x="540" y="290" width="20" height="410" as="geometry" />
        </mxCell>
        <mxCell id="V_IxgnTOPH774RCMa7yx-73" value="(AuthRequest request)" style="text;html=1;align=center;verticalAlign=middle;whiteSpace=wrap;rounded=0;fontSize=10;" vertex="1" parent="1">
          <mxGeometry x="273.5" y="260" width="140" height="30" as="geometry" />
        </mxCell>
        <mxCell id="V_IxgnTOPH774RCMa7yx-74" value="authenticate" style="text;html=1;align=center;verticalAlign=middle;whiteSpace=wrap;rounded=0;labelBackgroundColor=default;" vertex="1" parent="1">
          <mxGeometry x="680" y="270" width="80" height="30" as="geometry" />
        </mxCell>
        <mxCell id="V_IxgnTOPH774RCMa7yx-75" value="" style="rounded=0;whiteSpace=wrap;html=1;" vertex="1" parent="1">
          <mxGeometry x="710" y="310" width="20" height="360" as="geometry" />
        </mxCell>
        <mxCell id="V_IxgnTOPH774RCMa7yx-78" value="" style="endArrow=open;html=1;rounded=0;edgeStyle=orthogonalEdgeStyle;endFill=0;strokeWidth=1;endSize=12;entryX=0;entryY=0;entryDx=0;entryDy=0;" edge="1" parent="1" source="V_IxgnTOPH774RCMa7yx-68" target="V_IxgnTOPH774RCMa7yx-75">
          <mxGeometry width="50" height="50" relative="1" as="geometry">
            <mxPoint x="300" y="360" as="sourcePoint" />
            <mxPoint x="660" y="360" as="targetPoint" />
            <Array as="points">
              <mxPoint x="620" y="310" />
              <mxPoint x="620" y="310" />
            </Array>
          </mxGeometry>
        </mxCell>
        <mxCell id="V_IxgnTOPH774RCMa7yx-79" value="(AuthRequest request)" style="text;html=1;align=center;verticalAlign=middle;whiteSpace=wrap;rounded=0;fontSize=10;" vertex="1" parent="1">
          <mxGeometry x="570" y="290" width="110" height="20" as="geometry" />
        </mxCell>
        <mxCell id="V_IxgnTOPH774RCMa7yx-81" value="" style="endArrow=none;dashed=1;html=1;rounded=0;entryX=0.5;entryY=1;entryDx=0;entryDy=0;" edge="1" parent="1" source="V_IxgnTOPH774RCMa7yx-86" target="V_IxgnTOPH774RCMa7yx-80">
          <mxGeometry width="50" height="50" relative="1" as="geometry">
            <mxPoint x="1250" y="630" as="sourcePoint" />
            <mxPoint x="1250" y="150" as="targetPoint" />
          </mxGeometry>
        </mxCell>
        <mxCell id="V_IxgnTOPH774RCMa7yx-80" value="" style="rounded=0;whiteSpace=wrap;html=1;" vertex="1" parent="1">
          <mxGeometry x="1240" y="330" width="20" height="30" as="geometry" />
        </mxCell>
        <mxCell id="V_IxgnTOPH774RCMa7yx-82" value="" style="endArrow=open;html=1;rounded=0;edgeStyle=orthogonalEdgeStyle;endFill=0;strokeWidth=1;endSize=12;entryX=0;entryY=0;entryDx=0;entryDy=0;" edge="1" parent="1" source="V_IxgnTOPH774RCMa7yx-75" target="V_IxgnTOPH774RCMa7yx-80">
          <mxGeometry width="50" height="50" relative="1" as="geometry">
            <mxPoint x="480" y="290" as="sourcePoint" />
            <mxPoint x="840" y="290" as="targetPoint" />
            <Array as="points">
              <mxPoint x="890" y="330" />
              <mxPoint x="890" y="330" />
            </Array>
          </mxGeometry>
        </mxCell>
        <mxCell id="V_IxgnTOPH774RCMa7yx-83" value="" style="endArrow=open;html=1;rounded=0;edgeStyle=orthogonalEdgeStyle;endFill=0;strokeWidth=1;endSize=12;exitX=0;exitY=1;exitDx=0;exitDy=0;" edge="1" parent="1" source="V_IxgnTOPH774RCMa7yx-80" target="V_IxgnTOPH774RCMa7yx-75">
          <mxGeometry width="50" height="50" relative="1" as="geometry">
            <mxPoint x="930" y="330" as="sourcePoint" />
            <mxPoint x="1260" y="330" as="targetPoint" />
            <Array as="points">
              <mxPoint x="900" y="360" />
              <mxPoint x="900" y="360" />
            </Array>
          </mxGeometry>
        </mxCell>
        <mxCell id="V_IxgnTOPH774RCMa7yx-87" value="" style="endArrow=open;html=1;rounded=0;edgeStyle=orthogonalEdgeStyle;endFill=0;strokeWidth=1;endSize=12;entryX=0;entryY=0;entryDx=0;entryDy=0;" edge="1" parent="1" target="V_IxgnTOPH774RCMa7yx-86" source="V_IxgnTOPH774RCMa7yx-75">
          <mxGeometry width="50" height="50" relative="1" as="geometry">
            <mxPoint x="730" y="430" as="sourcePoint" />
            <mxPoint x="840" y="390" as="targetPoint" />
            <Array as="points">
              <mxPoint x="730" y="430" />
              <mxPoint x="730" y="430" />
            </Array>
          </mxGeometry>
        </mxCell>
        <mxCell id="V_IxgnTOPH774RCMa7yx-88" value="" style="endArrow=open;html=1;rounded=0;edgeStyle=orthogonalEdgeStyle;endFill=0;strokeWidth=1;endSize=12;exitX=0;exitY=1;exitDx=0;exitDy=0;" edge="1" parent="1" source="V_IxgnTOPH774RCMa7yx-86">
          <mxGeometry width="50" height="50" relative="1" as="geometry">
            <mxPoint x="930" y="430" as="sourcePoint" />
            <mxPoint x="730" y="460" as="targetPoint" />
            <Array as="points">
              <mxPoint x="900" y="460" />
              <mxPoint x="900" y="460" />
            </Array>
          </mxGeometry>
        </mxCell>
        <mxCell id="V_IxgnTOPH774RCMa7yx-91" value="" style="endArrow=none;dashed=1;html=1;rounded=0;entryX=0.5;entryY=1;entryDx=0;entryDy=0;" edge="1" parent="1" target="V_IxgnTOPH774RCMa7yx-86">
          <mxGeometry width="50" height="50" relative="1" as="geometry">
            <mxPoint x="1250" y="800" as="sourcePoint" />
            <mxPoint x="1250" y="360" as="targetPoint" />
          </mxGeometry>
        </mxCell>
        <mxCell id="V_IxgnTOPH774RCMa7yx-86" value="" style="rounded=0;whiteSpace=wrap;html=1;" vertex="1" parent="1">
          <mxGeometry x="1240" y="430" width="20" height="30" as="geometry" />
        </mxCell>
        <mxCell id="V_IxgnTOPH774RCMa7yx-93" value="UserRepository" style="text;html=1;align=center;verticalAlign=middle;whiteSpace=wrap;rounded=0;fontStyle=1;fontSize=16;" vertex="1" parent="1">
          <mxGeometry x="840" y="120" width="120" height="30" as="geometry" />
        </mxCell>
        <mxCell id="V_IxgnTOPH774RCMa7yx-94" value="" style="endArrow=none;dashed=1;html=1;rounded=0;entryX=0.5;entryY=1;entryDx=0;entryDy=0;" edge="1" parent="1" target="V_IxgnTOPH774RCMa7yx-93" source="V_IxgnTOPH774RCMa7yx-95">
          <mxGeometry width="50" height="50" relative="1" as="geometry">
            <mxPoint x="900" y="631.2121212121212" as="sourcePoint" />
            <mxPoint x="1200" y="260" as="targetPoint" />
          </mxGeometry>
        </mxCell>
        <mxCell id="V_IxgnTOPH774RCMa7yx-84" value="&lt;font style=&quot;font-size: 10px;&quot;&gt;(request.getUsername(), request.getPassword())&lt;/font&gt;" style="text;html=1;align=center;verticalAlign=middle;resizable=0;points=[];autosize=1;strokeColor=none;fillColor=none;labelBackgroundColor=#FFFFFF;" vertex="1" parent="1">
          <mxGeometry x="770" y="300" width="240" height="30" as="geometry" />
        </mxCell>
        <mxCell id="V_IxgnTOPH774RCMa7yx-85" value="UsernamePasswordAuthenticationToken auth&amp;nbsp;" style="text;html=1;align=center;verticalAlign=middle;resizable=0;points=[];autosize=1;strokeColor=none;fillColor=none;fontSize=10;labelBackgroundColor=default;" vertex="1" parent="1">
          <mxGeometry x="785" y="360" width="230" height="30" as="geometry" />
        </mxCell>
        <mxCell id="V_IxgnTOPH774RCMa7yx-89" value="&lt;div&gt;&lt;span style=&quot;font-size: 10px; white-space-collapse: collapse;&quot;&gt;authenticationProvider.authenticate( auth );&lt;/span&gt;&lt;/div&gt;" style="text;html=1;align=center;verticalAlign=middle;resizable=0;points=[];autosize=1;strokeColor=none;fillColor=none;labelBackgroundColor=default;" vertex="1" parent="1">
          <mxGeometry x="785" y="400" width="210" height="30" as="geometry" />
        </mxCell>
        <mxCell id="V_IxgnTOPH774RCMa7yx-96" value="" style="endArrow=none;dashed=1;html=1;rounded=0;entryX=0.5;entryY=1;entryDx=0;entryDy=0;" edge="1" parent="1" target="V_IxgnTOPH774RCMa7yx-95">
          <mxGeometry width="50" height="50" relative="1" as="geometry">
            <mxPoint x="900" y="800" as="sourcePoint" />
            <mxPoint x="900" y="150" as="targetPoint" />
          </mxGeometry>
        </mxCell>
        <mxCell id="V_IxgnTOPH774RCMa7yx-95" value="" style="rounded=0;whiteSpace=wrap;html=1;" vertex="1" parent="1">
          <mxGeometry x="890" y="520" width="20" height="30" as="geometry" />
        </mxCell>
        <mxCell id="V_IxgnTOPH774RCMa7yx-97" value="" style="endArrow=open;html=1;rounded=0;edgeStyle=orthogonalEdgeStyle;endFill=0;strokeWidth=1;endSize=12;entryX=0;entryY=0;entryDx=0;entryDy=0;" edge="1" parent="1" target="V_IxgnTOPH774RCMa7yx-95">
          <mxGeometry width="50" height="50" relative="1" as="geometry">
            <mxPoint x="730" y="520" as="sourcePoint" />
            <mxPoint x="880" y="520" as="targetPoint" />
            <Array as="points">
              <mxPoint x="800" y="520" />
              <mxPoint x="800" y="520" />
            </Array>
          </mxGeometry>
        </mxCell>
        <mxCell id="V_IxgnTOPH774RCMa7yx-98" value="findByUsername" style="text;html=1;align=center;verticalAlign=middle;whiteSpace=wrap;rounded=0;fontSize=10;labelBackgroundColor=default;" vertex="1" parent="1">
          <mxGeometry x="845" y="490" width="110" height="20" as="geometry" />
        </mxCell>
        <mxCell id="V_IxgnTOPH774RCMa7yx-99" value="" style="endArrow=open;html=1;rounded=0;edgeStyle=orthogonalEdgeStyle;endFill=0;strokeWidth=1;endSize=12;exitX=0;exitY=1;exitDx=0;exitDy=0;" edge="1" parent="1" source="V_IxgnTOPH774RCMa7yx-95" target="V_IxgnTOPH774RCMa7yx-75">
          <mxGeometry width="50" height="50" relative="1" as="geometry">
            <mxPoint x="1080" y="570" as="sourcePoint" />
            <mxPoint x="750" y="570" as="targetPoint" />
            <Array as="points">
              <mxPoint x="810" y="550" />
              <mxPoint x="810" y="550" />
            </Array>
          </mxGeometry>
        </mxCell>
        <mxCell id="V_IxgnTOPH774RCMa7yx-100" value="User user" style="text;html=1;align=center;verticalAlign=middle;whiteSpace=wrap;rounded=0;fontSize=10;" vertex="1" parent="1">
          <mxGeometry x="760" y="550" width="110" height="20" as="geometry" />
        </mxCell>
        <mxCell id="V_IxgnTOPH774RCMa7yx-101" value="request.username" style="text;html=1;align=center;verticalAlign=middle;whiteSpace=wrap;rounded=0;fontSize=10;" vertex="1" parent="1">
          <mxGeometry x="750" y="500" width="110" height="20" as="geometry" />
        </mxCell>
        <mxCell id="V_IxgnTOPH774RCMa7yx-106" value="JwtService" style="text;html=1;align=center;verticalAlign=middle;whiteSpace=wrap;rounded=0;fontStyle=1;fontSize=16;" vertex="1" parent="1">
          <mxGeometry x="1010" y="120" width="120" height="30" as="geometry" />
        </mxCell>
        <mxCell id="V_IxgnTOPH774RCMa7yx-107" value="" style="endArrow=none;dashed=1;html=1;rounded=0;entryX=0.5;entryY=1;entryDx=0;entryDy=0;" edge="1" parent="1" target="V_IxgnTOPH774RCMa7yx-106">
          <mxGeometry width="50" height="50" relative="1" as="geometry">
            <mxPoint x="1070" y="615" as="sourcePoint" />
            <mxPoint x="1370" y="260" as="targetPoint" />
          </mxGeometry>
        </mxCell>
        <mxCell id="V_IxgnTOPH774RCMa7yx-108" value="" style="endArrow=none;dashed=1;html=1;rounded=0;" edge="1" parent="1" target="V_IxgnTOPH774RCMa7yx-111">
          <mxGeometry width="50" height="50" relative="1" as="geometry">
            <mxPoint x="1070" y="800" as="sourcePoint" />
            <mxPoint x="1070" y="645" as="targetPoint" />
          </mxGeometry>
        </mxCell>
        <mxCell id="V_IxgnTOPH774RCMa7yx-111" value="" style="rounded=0;whiteSpace=wrap;html=1;" vertex="1" parent="1">
          <mxGeometry x="1060" y="590" width="20" height="30" as="geometry" />
        </mxCell>
        <mxCell id="V_IxgnTOPH774RCMa7yx-112" value="" style="endArrow=open;html=1;rounded=0;edgeStyle=orthogonalEdgeStyle;endFill=0;strokeWidth=1;endSize=12;entryX=0;entryY=0;entryDx=0;entryDy=0;" edge="1" parent="1" target="V_IxgnTOPH774RCMa7yx-111" source="V_IxgnTOPH774RCMa7yx-75">
          <mxGeometry width="50" height="50" relative="1" as="geometry">
            <mxPoint x="900" y="590" as="sourcePoint" />
            <mxPoint x="1050" y="590" as="targetPoint" />
            <Array as="points">
              <mxPoint x="890" y="590" />
              <mxPoint x="890" y="590" />
            </Array>
          </mxGeometry>
        </mxCell>
        <mxCell id="V_IxgnTOPH774RCMa7yx-113" value="generateToken" style="text;html=1;align=center;verticalAlign=middle;whiteSpace=wrap;rounded=0;fontSize=10;labelBackgroundColor=default;" vertex="1" parent="1">
          <mxGeometry x="1015" y="560" width="110" height="20" as="geometry" />
        </mxCell>
        <mxCell id="V_IxgnTOPH774RCMa7yx-114" value="" style="endArrow=open;html=1;rounded=0;edgeStyle=orthogonalEdgeStyle;endFill=0;strokeWidth=1;endSize=12;exitX=0;exitY=1;exitDx=0;exitDy=0;" edge="1" parent="1" source="V_IxgnTOPH774RCMa7yx-111" target="V_IxgnTOPH774RCMa7yx-75">
          <mxGeometry width="50" height="50" relative="1" as="geometry">
            <mxPoint x="1250" y="640" as="sourcePoint" />
            <mxPoint x="900" y="620" as="targetPoint" />
            <Array as="points">
              <mxPoint x="890" y="620" />
              <mxPoint x="890" y="620" />
            </Array>
          </mxGeometry>
        </mxCell>
        <mxCell id="V_IxgnTOPH774RCMa7yx-115" value="String token" style="text;html=1;align=center;verticalAlign=middle;whiteSpace=wrap;rounded=0;fontSize=10;labelBackgroundColor=default;" vertex="1" parent="1">
          <mxGeometry x="845" y="620" width="110" height="20" as="geometry" />
        </mxCell>
        <mxCell id="V_IxgnTOPH774RCMa7yx-116" value="new AuthResponse(token)" style="text;html=1;align=center;verticalAlign=middle;whiteSpace=wrap;rounded=0;fontSize=10;labelBackgroundColor=default;" vertex="1" parent="1">
          <mxGeometry x="570" y="650" width="150" height="20" as="geometry" />
        </mxCell>
        <mxCell id="V_IxgnTOPH774RCMa7yx-118" value="" style="endArrow=open;html=1;rounded=0;edgeStyle=orthogonalEdgeStyle;endFill=0;strokeWidth=1;endSize=12;exitX=0;exitY=1;exitDx=0;exitDy=0;" edge="1" parent="1" source="V_IxgnTOPH774RCMa7yx-75" target="V_IxgnTOPH774RCMa7yx-68">
          <mxGeometry width="50" height="50" relative="1" as="geometry">
            <mxPoint x="670" y="610" as="sourcePoint" />
            <mxPoint x="590" y="670" as="targetPoint" />
            <Array as="points">
              <mxPoint x="670" y="670" />
              <mxPoint x="670" y="670" />
            </Array>
          </mxGeometry>
        </mxCell>
        <mxCell id="V_IxgnTOPH774RCMa7yx-120" value="User user" style="text;html=1;align=center;verticalAlign=middle;whiteSpace=wrap;rounded=0;fontSize=10;labelBackgroundColor=default;" vertex="1" parent="1">
          <mxGeometry x="845" y="570" width="110" height="20" as="geometry" />
        </mxCell>
        <mxCell id="V_IxgnTOPH774RCMa7yx-121" value="&lt;div&gt;{&lt;/div&gt;&lt;div&gt;&amp;nbsp; &amp;nbsp; &quot;token&quot;: &quot;eyJhbGciOiJI...XJxoU1uBba0w&quot;&lt;/div&gt;&lt;div&gt;}&lt;/div&gt;" style="text;html=1;align=left;verticalAlign=middle;whiteSpace=wrap;rounded=0;" vertex="1" parent="1">
          <mxGeometry x="50" y="632.5" width="260" height="55" as="geometry" />
        </mxCell>
        <mxCell id="V_IxgnTOPH774RCMa7yx-122" value="" style="endArrow=open;html=1;rounded=0;edgeStyle=orthogonalEdgeStyle;endFill=0;strokeWidth=1;endSize=12;exitX=0;exitY=1;exitDx=0;exitDy=0;" edge="1" parent="1" source="V_IxgnTOPH774RCMa7yx-68" target="V_IxgnTOPH774RCMa7yx-123">
          <mxGeometry width="50" height="50" relative="1" as="geometry">
            <mxPoint x="320" y="690" as="sourcePoint" />
            <mxPoint x="-210" y="680" as="targetPoint" />
            <Array as="points">
              <mxPoint x="170" y="700" />
              <mxPoint x="170" y="700" />
            </Array>
          </mxGeometry>
        </mxCell>
        <mxCell id="V_IxgnTOPH774RCMa7yx-124" value="" style="endArrow=none;dashed=1;html=1;rounded=0;entryX=0.5;entryY=1;entryDx=0;entryDy=0;" edge="1" parent="1" target="V_IxgnTOPH774RCMa7yx-123">
          <mxGeometry width="50" height="50" relative="1" as="geometry">
            <mxPoint x="-215" y="800" as="sourcePoint" />
            <mxPoint x="-215" y="220" as="targetPoint" />
          </mxGeometry>
        </mxCell>
        <mxCell id="V_IxgnTOPH774RCMa7yx-123" value="" style="rounded=0;whiteSpace=wrap;html=1;" vertex="1" parent="1">
          <mxGeometry x="-225" y="687.5" width="20" height="30" as="geometry" />
        </mxCell>
      </root>
    </mxGraphModel>
  </diagram>
</mxfile>
